<?xml version="1.0" encoding="UTF-8" standalone="no"?>
<!-- Created with Inkscape (http://www.inkscape.org/) -->

<svg
   xmlns:dc="http://purl.org/dc/elements/1.1/"
   xmlns:cc="http://creativecommons.org/ns#"
   xmlns:rdf="http://www.w3.org/1999/02/22-rdf-syntax-ns#"
   xmlns:svg="http://www.w3.org/2000/svg"
   xmlns="http://www.w3.org/2000/svg"
   xmlns:sodipodi="http://sodipodi.sourceforge.net/DTD/sodipodi-0.dtd"
   xmlns:inkscape="http://www.inkscape.org/namespaces/inkscape"
   width="112.82297mm"
   height="125.75645mm"
   viewBox="0 0 112.82297 125.75645"
   version="1.1"
   id="svg8"
   inkscape:version="0.92.3 (2405546, 2018-03-11)"
   sodipodi:docname="drawing-1.svg">
  <defs
     id="defs2" />
  <sodipodi:namedview
     id="base"
     pagecolor="#ffffff"
     bordercolor="#666666"
     borderopacity="1.0"
     inkscape:pageopacity="0.0"
     inkscape:pageshadow="2"
     inkscape:zoom="0.35"
     inkscape:cx="-136.89752"
     inkscape:cy="124.42143"
     inkscape:document-units="mm"
     inkscape:current-layer="layer1"
     showgrid="false"
     inkscape:window-width="1421"
     inkscape:window-height="1003"
     inkscape:window-x="192"
     inkscape:window-y="0"
     inkscape:window-maximized="0"
     objecttolerance="10000" />
  <metadata
     id="metadata5">
    <rdf:RDF>
      <cc:Work
         rdf:about="">
        <dc:format>image/svg+xml</dc:format>
        <dc:type
           rdf:resource="http://purl.org/dc/dcmitype/StillImage" />
        <dc:title></dc:title>
      </cc:Work>
    </rdf:RDF>
  </metadata>
  <g
     inkscape:label="Layer 1"
     inkscape:groupmode="layer"
     id="layer1"
     transform="translate(-44.914254,-55.996713)">
    <g
       id="g50"
       transform="matrix(0.26458333,0,0,0.26458333,46.52887,8.9273383)">
	<path
   style="fill:#8d6a59"
   inkscape:connector-curvature="0"
   class="st1"
   d="m 332.8,630.5 -56.1,-23.2 69.2,-167.5 c 1.7,-4.1 6.5,-6.1 10.6,-4.4 l 41.2,17 c 4.1,1.7 6.1,6.5 4.4,10.6 z"
   id="path14" />

	<polygon
   style="opacity:0.2;enable-background:new"
   class="st2"
   points="357.6,570.3 364.8,552.8 353.4,527 379.7,516.8 386.9,499.2 347.7,514.4 330.8,476.1 323.5,493.6 334.9,519.4 308.7,529.6 301.4,547.1 340.6,531.9 "
   id="polygon16" />

	<path
   style="opacity:0.3;fill:#ffffff;enable-background:new"
   inkscape:connector-curvature="0"
   class="st3"
   d="m 390.6,490.5 -56.1,-23.2 11.4,-27.5 c 1.7,-4.1 6.5,-6.1 10.6,-4.4 l 41.2,17 c 4.1,1.7 6.1,6.5 4.4,10.6 z"
   id="path18" />

	<path
   style="fill:#e36566"
   inkscape:connector-curvature="0"
   class="st4"
   d="M 33.8,508.8 C 60.1,475.4 71.8,440 68.6,403.7 l 46,-4.1 c 2.9,32.6 -3.1,64.9 -18,95.9 -9.4,19.7 -20.2,34.2 -27,42.7 -2.3,2.8 -6.5,3.3 -9.2,0.9 L 35,517.9 c -3,-2.4 -3.3,-6.4 -1.2,-9.1 z"
   id="path20" />

	<path
   style="fill:#7f00ff"
   inkscape:connector-curvature="0"
   class="st5"
   d="M 33.8,508.8 C 60.1,475.4 71.8,440 68.6,403.7 l 46,-4.1 c 2.9,32.6 -3.1,64.9 -18,95.9 -9.4,19.7 -20.2,34.2 -27,42.7 -2.3,2.8 -6.5,3.3 -9.2,0.9 L 35,517.9 c -3,-2.4 -3.3,-6.4 -1.2,-9.1 z"
   id="path22" />

	<path
   style="fill:#7f00ff"
   inkscape:connector-curvature="0"
   class="st5"
   d="m 4.9,452.2 c 38.7,-17.7 65.3,-43.8 78.9,-77.6 l 42.8,17.3 c -12.3,30.3 -32.4,56.2 -59.8,77 -17.3,13.2 -33.5,21.1 -43.6,25.6 -3.3,1.5 -7.3,-0.1 -8.7,-3.4 L 1.6,460.7 c -1.4,-3.2 0.1,-6.9 3.3,-8.5 z"
   id="path24" />

	<path
   style="fill:#394049"
   inkscape:connector-curvature="0"
   class="st6"
   d="m 101.8,537.6 c -67.4,10.8 -77,71.1 -78,96.8 -0.3,6.3 4.9,11.6 11.2,11.6 h 66.8 z"
   id="path26" />

	<path
   style="opacity:0.3;enable-background:new"
   inkscape:connector-curvature="0"
   class="st7"
   d="M 91.8,539.6 C 63.9,567 46,604.3 44.2,646 h 57.7 V 537.6 c -3.6,0.5 -6.9,1.3 -10.1,2 z"
   id="path28" />

	<path
   style="fill:#394049"
   inkscape:connector-curvature="0"
   class="st6"
   d="m 335.2,537.6 c 67.4,10.8 77,71.1 78,96.8 0.3,6.3 -4.9,11.6 -11.2,11.6 h -66.8 z"
   id="path30" />

	<path
   style="opacity:0.3;enable-background:new"
   inkscape:connector-curvature="0"
   class="st7"
   d="m 345.4,539.6 c 27.9,27.3 45.8,64.7 47.6,106.3 H 335.3 V 537.6 c 3.5,0.5 6.9,1.3 10.1,2 z"
   id="path32" />

	<path
   style="fill:#394049"
   inkscape:connector-curvature="0"
   class="st6"
   d="M 377,646 C 377,558.2 305.8,487 218,487 130.2,487 59,558.2 59,646 Z"
   id="path34" />

	<path
   style="opacity:0.15;enable-background:new"
   inkscape:connector-curvature="0"
   class="st8"
   d="m 218.1,487.1 c -46.1,0 -87.5,19.6 -116.6,50.9 31.9,25.7 72.4,41.1 116.6,41.1 44.2,0 84.7,-15.4 116.6,-41.1 -29.1,-31.3 -70.6,-50.9 -116.6,-50.9 z"
   id="path36" />

	<circle
   style="fill:#394049"
   class="st6"
   cx="218.5"
   cy="363.89999"
   r="185.89999"
   id="circle38" />

	<path
   style="fill:#f6cdb5"
   inkscape:connector-curvature="0"
   class="st9"
   d="M 332.9,374.2 H 103.2 c -15.9,0 -28.7,-12.9 -28.7,-28.7 v 0 c 0,-15.9 12.9,-28.7 28.7,-28.7 H 333 c 15.9,0 28.7,12.9 28.7,28.7 v 0 c 0.1,15.8 -12.8,28.7 -28.8,28.7 z"
   id="path40" />

	<path
   style="fill:#7f00ff"
   inkscape:connector-curvature="0"
   class="st5"
   d="M 379.6,270.9 H 57.5 c -8.2,14.2 -14.6,29.6 -18.8,45.8 H 398.5 C 394.2,300.4 387.8,285 379.6,270.9 Z"
   id="path42" />

	<path
   inkscape:connector-curvature="0"
   d="m 405.3,578.1 c -7.4,-13.3 -17.4,-23.7 -29.7,-31.5 l 32.8,-78.2 c 3.2,-7.6 -0.5,-16.4 -8.3,-19.6 l -5.7,-2.4 c 11,-23.9 17.1,-50.5 17.1,-78.4 0,-104.9 -86.6,-190.1 -193.1,-190.1 -106.5,0 -193,85.4 -193,190.2 0,21.3 3.6,41.8 10.2,61 -9.9,7.4 -21.2,14.1 -33.7,19.8 -6.8,3 -9.8,10.6 -6.9,17.4 l 12.9,30 c 1.4,3.3 4.1,5.9 7.5,7.3 1.6,0.7 3.3,0.9 5,0.9 1.9,0 3.8,-0.4 5.6,-1.1 2.4,-1 4.9,-2.2 7.3,-3.4 -1.6,2.2 -3.3,4.4 -5,6.6 -4.6,5.7 -3.8,13.9 2,18.6 l 25.4,20.9 c 1,0.8 2.3,1.5 3.5,2.1 -11.2,7.5 -20.3,17.6 -27.3,29.9 -11.3,20.1 -14.4,41.7 -15,56.3 -0.2,4.9 1.6,9.6 5.1,13.2 3.5,3.6 8.2,5.6 13.2,5.6 h 341.9 c 0.3,0 0.7,0 0.9,-0.1 v 0.1 h 24 c 5,0 9.7,-2 13.2,-5.6 3.5,-3.6 5.3,-8.2 5.1,-13.2 -0.6,-14.6 -3.6,-36.3 -15,-56.3 z m -42.1,-38.2 c -7.8,-3.4 -16.3,-5.8 -25.5,-7.3 -2.8,-2.9 -5.8,-5.7 -8.9,-8.4 13.9,-9.6 26.6,-20.9 37.5,-33.7 l 15.1,6.1 z m 31.6,-78.2 c 0.6,0.2 0.8,0.8 0.6,1.4 l -8.7,20.6 -11.5,-4.7 c 4.7,-6.4 8.9,-13.1 12.8,-20.1 z M 218.5,191.8 c 61.6,0 116,30.8 148.1,77.6 H 70.3 C 102.6,222.6 157,191.8 218.5,191.8 Z M 61.7,283.4 h 313.6 c 5.6,9.9 10.1,20.3 13.7,31.2 H 48.1 c 3.5,-10.9 8.1,-21.3 13.6,-31.2 z m 293,66.5 c 0,11.8 -9.7,21.4 -21.7,21.4 H 103.2 c -12,0 -21.7,-9.6 -21.7,-21.4 0,-11.8 9.7,-21.4 21.7,-21.4 H 333 c 11.9,0 21.7,9.6 21.7,21.4 z M 44.2,328.5 h 30.5 c -4.6,5.9 -7.3,13.4 -7.3,21.4 0,19.5 16.1,35.3 35.8,35.3 H 333 c 19.8,0 35.8,-15.8 35.8,-35.3 0,-8 -2.7,-15.4 -7.3,-21.4 H 393 c 3,12.7 4.5,26 4.5,39.6 0,97.2 -80.2,176.3 -178.9,176.3 -98.7,0 -179.1,-79.2 -179.1,-176.3 0.2,-13.6 1.8,-26.9 4.7,-39.6 z m 63.7,195.3 c -3.3,2.9 -6.5,5.9 -9.5,8.9 -6.4,1.1 -12.5,2.7 -18.2,4.8 5.7,-7.4 10.8,-15.2 15.4,-23.1 3.9,3.4 8,6.5 12.3,9.4 z M 20.7,490.4 8.3,461.3 c 12,-5.5 22.9,-11.7 32.7,-18.7 4.2,9.8 9.3,19.2 15.2,28.2 -11,7.4 -22.8,14 -35.5,19.6 z m 19,24.4 c 7.5,-9.4 13.9,-19.2 19.2,-29 1.8,-1.1 3.6,-2.4 5.3,-3.6 6.2,8.2 13.1,15.8 20.5,22.9 C 78.9,515.4 72,525.5 64.3,535 Z m -4.5,124.3 c -1.1,0 -2.2,-0.5 -3,-1.2 -0.5,-0.5 -1.2,-1.5 -1.1,-2.9 0.4,-10.7 2.6,-31.6 13.2,-50.1 8.8,-15.5 21.7,-26.7 38.3,-33.2 -18.4,25.4 -28.9,55.7 -30.2,87.5 z m 31.1,0 c 2,-41.8 21.3,-80.4 53.8,-107.5 28.8,16.9 62.4,26.7 98.4,26.7 35.7,0 69.1,-9.6 97.9,-26.3 32.3,27 51.5,65.5 53.4,107.1 z M 405,637.9 c -0.8,0.8 -1.9,1.2 -3,1.2 H 383.9 C 382.6,607 371.8,576.6 353.2,551 c 17.3,6.5 30.7,17.8 39.7,33.7 10.5,18.6 12.7,39.4 13.2,50.1 0.1,1.7 -0.6,2.6 -1.1,3.1 z"
   id="path44" />

	<circle
   cx="136.10001"
   cy="348.70001"
   r="10.6"
   id="circle46" />

	<circle
   cx="296.89999"
   cy="348.70001"
   r="10.6"
   id="circle48" />

</g>
  </g>
  <style
     id="style10"
     type="text/css">
	.st0{fill:#F3F2F4;}
	.st1{fill:#8D6A59;}
	.st2{opacity:0.2;enable-background:new    ;}
	.st3{opacity:0.3;fill:#FFFFFF;enable-background:new    ;}
	.st4{fill:#E36566;}
	.st5{fill:#7F00FF;}
	.st6{fill:#394049;}
	.st7{opacity:0.3;enable-background:new    ;}
	.st8{opacity:0.15;enable-background:new    ;}
	.st9{fill:#F6CDB5;}
</style>
</svg>
