<?xml version="1.0" encoding="utf-8"?>
<!-- Generator: Adobe Illustrator 15.0.0, SVG Export Plug-In . SVG Version: 6.00 Build 0)  -->
<!DOCTYPE svg PUBLIC "-//W3C//DTD SVG 1.1//EN" "http://www.w3.org/Graphics/SVG/1.1/DTD/svg11.dtd">
<svg version="1.1" id="Layer_1" xmlns="http://www.w3.org/2000/svg" xmlns:xlink="http://www.w3.org/1999/xlink" x="0px" y="0px"
	 width="396.386px" height="351.952px" viewBox="0 0 396.386 351.952" enable-background="new 0 0 396.386 351.952"
	 xml:space="preserve">
<path d="M267.117,81c-18.398-25.2-34.207-31.002-47.205-39.099c-25.38-15.817-50.58-25.518-50.58-25.518
	c-7.891-0.579-9.875-0.788-15.647-0.324c-5.296,0.429-8.978-4.037-15.411-1.868c-5.061,1.693-3.548,4.242-12.862,2.299
	c-4.031-0.845-4.945,8.156-4.945,8.156c-19.909-6.469-32.778-1.349-32.778-1.349c-24.443,10.88-18.72,40.457-18.72,40.457
	l-0.013,7.073l3.214-1.279l-0.011,7.072l3.219-3.85c8.336,9.01,15.397,8.579,22.062,8.756c3.066,0.081,4.159,2.543,5.019,4.229
	c2.082,4.072,5.004,2.101,5.037,1.217c0.03-1.095,0.647-1.285,0.647-1.285l3.845,0.646v3.861
	c0.365,14.068,18.561,41.936,20.097,43.999c5.474,7.364,27.974,24.871,27.974,24.871c5.397,13.349,9.25,14.847,9.25,14.847
	c-0.361,2.135-1.117,6.73-1.639,10.044c-0.506,3.222-3.244,11.83-3.836,15.729c-0.465,3.047,2.814,12.409,3.497,15.592
	c1.728,8.113,1.326,8.495,1.872,12.311c1.93,13.425-0.036,18.739-0.036,18.739c1.915,6.42-4.825,21.374-4.825,21.374
	c-5.354,9.586-1.955,19.279-1.955,19.279c-7.082,5.129-13.537,19.263-13.537,19.263c-27.669,12.155-19.976,21.81-19.976,21.81
	c17.343,7.285,28.925-0.579,28.925-0.579c7.084-6.426,12.23-6.595,12.23-6.595c18.641-2.058,20.587-10.705,20.587-10.705
	l1.317-17.352c6.945-17.755,3.771-29.304,8.623-54.826c0.219-1.146,0.102-14.537,0.311-15.658c0.428-2.298-0.379-7.87,0.021-10.067
	c0.991-5.449,7.815-14.934,9.1-19.276c1.57-5.305,8.021-18.092,8.021-18.092c0.261,1.74,0.06,4.332,0.06,4.332s0,0-0.756,0.367
	c-0.472,0.226-1.413,0.664-1.675,1.684c-0.366,1.42,1.604,4.639,1.137,3.726c-0.467-0.905-2.332,1.065-2.668,3.04
	c-0.252,1.44,2.4,3.402,2.4,3.402c-0.731,0.915-1.83,0.73-1.889,2.257c-0.058,1.465,1.85,2.745,2.141,2.831
	c0,0-2.044,0.886-2.259,1.836c-0.331,1.499,0.845,2.154,1.101,2.41c0.27,0.269,1.101,0.425,1.101,0.425s-0.456,3.023-0.704,3.892
	c-2.351,8.077-3.303,5.079-3.242,11.386c0.037,3.668,5.053,13.099,5.838,16.788c2.634,12.308,2.404,17.403,2.359,20.951
	c-0.359,28.23-1.332,38.721-1.332,38.721l-7.09,11.373c-14.822,19.083,5.751,18.197,5.751,18.197
	c25.712-1.885,26.377-13.442,26.377-13.442c3.224-4.501,9.018-8.987,9.018-8.987l1.308-12.217c1.292-1.924,3.516-9.027,1.742-12.336
	c-2.211-4.131-2.337-13.366-2.337-13.366c1.218-10.199,0.946-3.93,0.158-16.35c-0.196-3.042-2.634-16.929-2.389-19.185
	c0.557-5.081-1.802-8.117-1.802-8.117c0.086-3.369,5.874-19.224,6.758-23.187c5.926-26.55,20.509-53.919,20.509-53.919
	C292.463,114.539,267.117,81,267.117,81z M181.999,147.993l-9.054-5.617c-5.781-3.869-17.316-18.673-17.316-18.673
	c-3.773-3.057-8.885-9.102-8.885-9.102l-2.004-11.489c6.406,9.657,28.369,14.153,28.369,14.153c3.213,0.974,8.65,8.357,8.65,8.357
	C183.977,135.695,181.999,147.993,181.999,147.993z"/>
</svg>
